<svg width="32" height="32" viewBox="0 0 32 32" fill="none" xmlns="http://www.w3.org/2000/svg">
<mask id="path-1-inside-1_29722_18194" fill="white">
<path fill-rule="evenodd" clip-rule="evenodd" d="M16 32C24.8366 32 32 24.8366 32 16C32 7.16344 24.8366 0 16 0C7.16344 0 0 7.16344 0 16C0 24.8366 7.16344 32 16 32ZM19.6606 13.2912H16.9268L16.9268 11.4223C16.9268 10.7784 17.5237 10.5488 18.1904 10.5488C18.8572 10.5488 19.5712 10.7482 19.5712 10.7482L20 8.2968C20 8.2968 19.0885 8 16.9268 8C15.6005 8 14.8285 8.48712 14.2665 9.20339C13.733 9.88084 13.7144 10.9749 13.7144 11.6826V13.2911H12V15.6845H13.7144V24H16.9267V15.6846H19.4699L19.6606 13.2912Z"/>
</mask>
<path fill-rule="evenodd" clip-rule="evenodd" d="M16 32C24.8366 32 32 24.8366 32 16C32 7.16344 24.8366 0 16 0C7.16344 0 0 7.16344 0 16C0 24.8366 7.16344 32 16 32ZM19.6606 13.2912H16.9268L16.9268 11.4223C16.9268 10.7784 17.5237 10.5488 18.1904 10.5488C18.8572 10.5488 19.5712 10.7482 19.5712 10.7482L20 8.2968C20 8.2968 19.0885 8 16.9268 8C15.6005 8 14.8285 8.48712 14.2665 9.20339C13.733 9.88084 13.7144 10.9749 13.7144 11.6826V13.2911H12V15.6845H13.7144V24H16.9267V15.6846H19.4699L19.6606 13.2912Z" fill="white"/>
<path d="M16.9268 13.2912L15.9268 13.2911L15.9268 14.2912H16.9268V13.2912ZM19.6606 13.2912L20.6574 13.3706L20.7434 12.2912H19.6606V13.2912ZM16.9268 11.4223L17.9268 11.4223V11.4223H16.9268ZM19.5712 10.7482L19.3022 11.7113L20.366 12.0084L20.5563 10.9205L19.5712 10.7482ZM20 8.2968L20.985 8.46909L21.1345 7.61454L20.3096 7.34594L20 8.2968ZM14.2665 9.20339L15.0521 9.82203L15.0531 9.82074L14.2665 9.20339ZM13.7144 13.2911V14.2911H14.7144V13.2911H13.7144ZM12 13.2911V12.2911H11V13.2911H12ZM12 15.6845H11V16.6845H12V15.6845ZM13.7144 15.6845H14.7144V14.6845H13.7144V15.6845ZM13.7144 24H12.7144V25H13.7144V24ZM16.9267 24V25H17.9267V24H16.9267ZM16.9267 15.6846V14.6846H15.9267V15.6846H16.9267ZM19.4699 15.6846V16.6846H20.3934L20.4668 15.764L19.4699 15.6846ZM31 16C31 24.2843 24.2843 31 16 31V33C25.3888 33 33 25.3888 33 16H31ZM16 1C24.2843 1 31 7.71573 31 16H33C33 6.61116 25.3888 -1 16 -1V1ZM1 16C1 7.71573 7.71573 1 16 1V-1C6.61116 -1 -1 6.61116 -1 16H1ZM16 31C7.71573 31 1 24.2843 1 16H-1C-1 25.3888 6.61116 33 16 33V31ZM16.9268 14.2912H19.6606V12.2912H16.9268V14.2912ZM15.9268 11.4223L15.9268 13.2911L17.9268 13.2912L17.9268 11.4223L15.9268 11.4223ZM18.1904 9.54876C17.769 9.54876 17.2487 9.61701 16.7986 9.8839C16.2849 10.1885 15.9268 10.7217 15.9268 11.4223H17.9268C17.9268 11.4216 17.9251 11.466 17.8909 11.5238C17.8583 11.5787 17.8222 11.6021 17.8186 11.6042C17.8178 11.6047 17.8247 11.6005 17.842 11.5942C17.8593 11.5879 17.8843 11.5803 17.9182 11.5732C17.9873 11.5586 18.0788 11.5488 18.1904 11.5488V9.54876ZM19.5712 10.7482C19.8403 9.78505 19.8401 9.78502 19.84 9.78499C19.84 9.78497 19.8399 9.78494 19.8398 9.78492C19.8396 9.78487 19.8394 9.78482 19.8392 9.78476C19.8388 9.78465 19.8384 9.78453 19.8379 9.7844C19.8369 9.78413 19.8358 9.78381 19.8345 9.78345C19.8318 9.78273 19.8285 9.78182 19.8245 9.78073C19.8165 9.77857 19.8058 9.7757 19.7926 9.77223C19.7661 9.76531 19.7295 9.75596 19.6842 9.74502C19.5939 9.72319 19.4676 9.69462 19.3179 9.66612C19.0263 9.6106 18.6124 9.54876 18.1904 9.54876V11.5488C18.4353 11.5488 18.7117 11.5866 18.9438 11.6308C19.056 11.6522 19.1499 11.6735 19.2143 11.689C19.2464 11.6968 19.2708 11.703 19.286 11.707C19.2936 11.709 19.2988 11.7104 19.3016 11.7112C19.303 11.7115 19.3038 11.7118 19.3039 11.7118C19.3039 11.7118 19.3038 11.7118 19.3036 11.7117C19.3034 11.7117 19.3032 11.7116 19.303 11.7115C19.3029 11.7115 19.3028 11.7115 19.3027 11.7114C19.3026 11.7114 19.3025 11.7114 19.3025 11.7114C19.3024 11.7114 19.3022 11.7113 19.5712 10.7482ZM19.015 8.12451L18.5862 10.5759L20.5563 10.9205L20.985 8.46909L19.015 8.12451ZM16.9268 9C17.9619 9 18.6808 9.07106 19.1267 9.13749C19.3497 9.1707 19.5045 9.20277 19.5965 9.22426C19.6426 9.235 19.673 9.24311 19.6884 9.2474C19.6961 9.24954 19.7 9.25074 19.7003 9.25083C19.7005 9.25087 19.6997 9.25065 19.6981 9.25012C19.6972 9.24986 19.6962 9.24953 19.6949 9.24912C19.6943 9.24891 19.6936 9.24869 19.6928 9.24845C19.6924 9.24833 19.692 9.2482 19.6916 9.24807C19.6914 9.248 19.6911 9.2479 19.691 9.24787C19.6907 9.24777 19.6904 9.24766 20 8.2968C20.3096 7.34594 20.3093 7.34583 20.309 7.34572C20.3088 7.34569 20.3085 7.34558 20.3083 7.3455C20.3078 7.34535 20.3073 7.3452 20.3069 7.34504C20.3059 7.34473 20.3048 7.3444 20.3038 7.34405C20.3016 7.34335 20.2992 7.3426 20.2966 7.34177C20.2913 7.34013 20.2852 7.33823 20.2781 7.33611C20.264 7.33185 20.2463 7.32667 20.2249 7.32069C20.182 7.30875 20.1243 7.29367 20.0511 7.27659C19.9047 7.24243 19.6965 7.2003 19.4214 7.15931C18.8711 7.07734 18.0534 7 16.9268 7V9ZM15.0531 9.82074C15.2623 9.55428 15.4843 9.36196 15.7519 9.23018C16.0205 9.09788 16.389 9 16.9268 9V7C16.1382 7 15.4576 7.14568 14.8682 7.43601C14.2777 7.72685 13.8328 8.13624 13.4798 8.58604L15.0531 9.82074ZM14.7144 11.6826C14.7144 11.3305 14.7203 10.9503 14.7779 10.5894C14.837 10.2191 14.9365 9.96894 15.0521 9.82202L13.4808 8.58476C13.063 9.11529 12.8865 9.75089 12.8029 10.274C12.7179 10.8064 12.7144 11.327 12.7144 11.6826H14.7144ZM14.7144 13.2911V11.6826H12.7144V13.2911H14.7144ZM12 14.2911H13.7144V12.2911H12V14.2911ZM13 15.6845V13.2911H11V15.6845H13ZM13.7144 14.6845H12V16.6845H13.7144V14.6845ZM14.7144 24V15.6845H12.7144V24H14.7144ZM16.9267 23H13.7144V25H16.9267V23ZM15.9267 15.6846V24H17.9267V15.6846H15.9267ZM19.4699 14.6846H16.9267V16.6846H19.4699V14.6846ZM18.6638 13.2117L18.4731 15.6052L20.4668 15.764L20.6574 13.3706L18.6638 13.2117Z" fill="white" mask="url(#path-1-inside-1_29722_18194)"/>
</svg>
