<svg width="32" height="32" viewBox="0 0 32 32" fill="none" xmlns="http://www.w3.org/2000/svg">
<mask id="path-1-inside-1_29722_18206" fill="white">
<path fill-rule="evenodd" clip-rule="evenodd" d="M16 32C24.8366 32 32 24.8366 32 16C32 7.16344 24.8366 0 16 0C7.16344 0 0 7.16344 0 16C0 24.8366 7.16344 32 16 32ZM12.3872 15.9718C12.3872 13.9677 14.0243 12.3589 16.0001 12.3589C17.9759 12.3589 19.613 13.996 19.613 15.9718C19.613 17.9476 18.0041 19.5847 16.0001 19.5847C13.9961 19.5847 12.3872 17.9758 12.3872 15.9718ZM13.6856 15.9718C13.6856 17.2419 14.7299 18.2863 16.0001 18.2863C17.2703 18.2863 18.3146 17.2419 18.3146 15.9718C18.3146 14.7016 17.2703 13.6573 16.0001 13.6573C14.7299 13.6573 13.6856 14.7016 13.6856 15.9718ZM19.7539 13.0927C20.206 13.0927 20.5725 12.7263 20.5725 12.2742C20.5725 11.8221 20.206 11.4557 19.7539 11.4557C19.3019 11.4557 18.9354 11.8221 18.9354 12.2742C18.9354 12.7263 19.3019 13.0927 19.7539 13.0927ZM18.9073 9C20.0927 9 21.1371 9.39516 21.871 10.1573C22.6048 10.8911 23 11.9073 23 13.0927V18.9073C23 20.121 22.6048 21.1653 21.8427 21.8992C21.1089 22.6048 20.0927 23 18.879 23H13.121C11.9637 23 10.9476 22.6331 10.1855 21.8992C9.39516 21.1371 9 20.0927 9 18.879V13.0927C9 10.6371 10.6371 9 13.0927 9H18.9073ZM20.9395 20.9677C21.4476 20.4879 21.7581 19.7823 21.7581 18.9073V13.0927C21.7581 12.2742 21.4758 11.5685 20.996 11.0605C20.4879 10.5524 19.7823 10.2984 18.9355 10.2984H13.121C12.2742 10.2984 11.5403 10.5524 11.0605 11.0323C10.5524 11.5403 10.2984 12.246 10.2984 13.0927V18.879C10.2984 19.754 10.5524 20.4597 11.0605 20.9677C11.5685 21.4476 12.2742 21.7016 13.121 21.7016H18.879C19.7258 21.7016 20.4314 21.4476 20.9395 20.9677Z"/>
</mask>
<path fill-rule="evenodd" clip-rule="evenodd" d="M16 32C24.8366 32 32 24.8366 32 16C32 7.16344 24.8366 0 16 0C7.16344 0 0 7.16344 0 16C0 24.8366 7.16344 32 16 32ZM12.3872 15.9718C12.3872 13.9677 14.0243 12.3589 16.0001 12.3589C17.9759 12.3589 19.613 13.996 19.613 15.9718C19.613 17.9476 18.0041 19.5847 16.0001 19.5847C13.9961 19.5847 12.3872 17.9758 12.3872 15.9718ZM13.6856 15.9718C13.6856 17.2419 14.7299 18.2863 16.0001 18.2863C17.2703 18.2863 18.3146 17.2419 18.3146 15.9718C18.3146 14.7016 17.2703 13.6573 16.0001 13.6573C14.7299 13.6573 13.6856 14.7016 13.6856 15.9718ZM19.7539 13.0927C20.206 13.0927 20.5725 12.7263 20.5725 12.2742C20.5725 11.8221 20.206 11.4557 19.7539 11.4557C19.3019 11.4557 18.9354 11.8221 18.9354 12.2742C18.9354 12.7263 19.3019 13.0927 19.7539 13.0927ZM18.9073 9C20.0927 9 21.1371 9.39516 21.871 10.1573C22.6048 10.8911 23 11.9073 23 13.0927V18.9073C23 20.121 22.6048 21.1653 21.8427 21.8992C21.1089 22.6048 20.0927 23 18.879 23H13.121C11.9637 23 10.9476 22.6331 10.1855 21.8992C9.39516 21.1371 9 20.0927 9 18.879V13.0927C9 10.6371 10.6371 9 13.0927 9H18.9073ZM20.9395 20.9677C21.4476 20.4879 21.7581 19.7823 21.7581 18.9073V13.0927C21.7581 12.2742 21.4758 11.5685 20.996 11.0605C20.4879 10.5524 19.7823 10.2984 18.9355 10.2984H13.121C12.2742 10.2984 11.5403 10.5524 11.0605 11.0323C10.5524 11.5403 10.2984 12.246 10.2984 13.0927V18.879C10.2984 19.754 10.5524 20.4597 11.0605 20.9677C11.5685 21.4476 12.2742 21.7016 13.121 21.7016H18.879C19.7258 21.7016 20.4314 21.4476 20.9395 20.9677Z" fill="white"/>
<path d="M21.871 10.1573L21.1506 10.8509L21.1572 10.8577L21.1639 10.8644L21.871 10.1573ZM21.8427 21.8992L22.5359 22.62L22.5364 22.6195L21.8427 21.8992ZM10.1855 21.8992L9.49135 22.619L9.49184 22.6195L10.1855 21.8992ZM20.9395 20.9677L21.6261 21.6948L21.6261 21.6948L20.9395 20.9677ZM20.996 11.0605L21.723 10.3739L21.7132 10.3635L21.7031 10.3534L20.996 11.0605ZM11.0605 11.0323L11.7676 11.7394L11.7676 11.7394L11.0605 11.0323ZM11.0605 20.9677L10.3534 21.6749L10.3635 21.6849L10.3739 21.6948L11.0605 20.9677ZM31 16C31 24.2843 24.2843 31 16 31V33C25.3888 33 33 25.3888 33 16H31ZM16 1C24.2843 1 31 7.71573 31 16H33C33 6.61116 25.3888 -1 16 -1V1ZM1 16C1 7.71573 7.71573 1 16 1V-1C6.61116 -1 -1 6.61116 -1 16H1ZM16 31C7.71573 31 1 24.2843 1 16H-1C-1 25.3888 6.61116 33 16 33V31ZM16.0001 11.3589C13.4771 11.3589 11.3872 13.4104 11.3872 15.9718H13.3872C13.3872 14.5251 14.5715 13.3589 16.0001 13.3589V11.3589ZM20.613 15.9718C20.613 13.4437 18.5282 11.3589 16.0001 11.3589V13.3589C17.4236 13.3589 18.613 14.5483 18.613 15.9718H20.613ZM16.0001 20.5847C18.5615 20.5847 20.613 18.4948 20.613 15.9718H18.613C18.613 17.4004 17.4468 18.5847 16.0001 18.5847V20.5847ZM11.3872 15.9718C11.3872 18.5281 13.4438 20.5847 16.0001 20.5847V18.5847C14.5484 18.5847 13.3872 17.4235 13.3872 15.9718H11.3872ZM16.0001 17.2863C15.2822 17.2863 14.6856 16.6897 14.6856 15.9718H12.6856C12.6856 17.7942 14.1777 19.2863 16.0001 19.2863V17.2863ZM17.3146 15.9718C17.3146 16.6897 16.718 17.2863 16.0001 17.2863V19.2863C17.8226 19.2863 19.3146 17.7942 19.3146 15.9718H17.3146ZM16.0001 14.6573C16.718 14.6573 17.3146 15.2539 17.3146 15.9718H19.3146C19.3146 14.1493 17.8226 12.6573 16.0001 12.6573V14.6573ZM14.6856 15.9718C14.6856 15.2539 15.2822 14.6573 16.0001 14.6573V12.6573C14.1777 12.6573 12.6856 14.1493 12.6856 15.9718H14.6856ZM19.5725 12.2742C19.5725 12.174 19.6537 12.0927 19.7539 12.0927V14.0927C20.7583 14.0927 21.5725 13.2786 21.5725 12.2742H19.5725ZM19.7539 12.4557C19.6537 12.4557 19.5725 12.3744 19.5725 12.2742H21.5725C21.5725 11.2698 20.7583 10.4557 19.7539 10.4557V12.4557ZM19.9354 12.2742C19.9354 12.3744 19.8542 12.4557 19.7539 12.4557V10.4557C18.7496 10.4557 17.9354 11.2698 17.9354 12.2742H19.9354ZM19.7539 12.0927C19.8542 12.0927 19.9354 12.174 19.9354 12.2742H17.9354C17.9354 13.2786 18.7496 14.0927 19.7539 14.0927V12.0927ZM22.5913 9.46362C21.6374 8.47305 20.3155 8 18.9073 8V10C19.87 10 20.6368 10.3173 21.1506 10.8509L22.5913 9.46362ZM24 13.0927C24 11.6785 23.5238 10.3959 22.5781 9.45015L21.1639 10.8644C21.6859 11.3864 22 12.136 22 13.0927H24ZM24 18.9073V13.0927H22V18.9073H24ZM22.5364 22.6195C23.5292 21.6635 24 20.34 24 18.9073H22C22 19.9019 21.6805 20.6672 21.1491 21.1789L22.5364 22.6195ZM18.879 24C20.3166 24 21.5922 23.5274 22.5359 22.62L21.1496 21.1784C20.6255 21.6823 19.8688 22 18.879 22V24ZM13.121 24H18.879V22H13.121V24ZM9.49184 22.6195C10.4679 23.5594 11.7461 24 13.121 24V22C12.1813 22 11.4273 21.7067 10.8791 21.1789L9.49184 22.6195ZM8 18.879C8 20.3179 8.47453 21.6385 9.49135 22.619L10.8796 21.1793C10.3158 20.6357 10 19.8676 10 18.879H8ZM8 13.0927V18.879H10V13.0927H8ZM13.0927 8C11.6377 8 10.3474 8.48939 9.4184 9.4184C8.48939 10.3474 8 11.6377 8 13.0927H10C10 12.0922 10.3292 11.3361 10.8326 10.8326C11.3361 10.3292 12.0922 10 13.0927 10V8ZM18.9073 8H13.0927V10H18.9073V8ZM20.7581 18.9073C20.7581 19.536 20.5409 19.9688 20.2529 20.2407L21.6261 21.6948C22.3543 21.007 22.7581 20.0285 22.7581 18.9073H20.7581ZM20.7581 13.0927V18.9073H22.7581V13.0927H20.7581ZM20.269 11.7471C20.5599 12.0552 20.7581 12.5091 20.7581 13.0927H22.7581C22.7581 12.0393 22.3917 11.0819 21.723 10.3739L20.269 11.7471ZM18.9355 11.2984C19.5786 11.2984 20.0078 11.4865 20.2889 11.7676L21.7031 10.3534C20.968 9.61834 19.9859 9.29839 18.9355 9.29839V11.2984ZM13.121 11.2984H18.9355V9.29839H13.121V11.2984ZM11.7676 11.7394C12.0094 11.4976 12.4583 11.2984 13.121 11.2984V9.29839C12.0901 9.29839 11.0712 9.60728 10.3534 10.3252L11.7676 11.7394ZM11.2984 13.0927C11.2984 12.4496 11.4865 12.0205 11.7676 11.7394L10.3534 10.3252C9.61833 11.0602 9.29839 12.0423 9.29839 13.0927H11.2984ZM11.2984 18.879V13.0927H9.29839V18.879H11.2984ZM11.7676 20.2606C11.4895 19.9825 11.2984 19.5556 11.2984 18.879H9.29839C9.29839 19.9525 9.61534 20.9368 10.3534 21.6749L11.7676 20.2606ZM13.121 20.7016C12.4765 20.7016 12.0343 20.5119 11.7471 20.2407L10.3739 21.6948C11.1028 22.3832 12.0719 22.7016 13.121 22.7016V20.7016ZM18.879 20.7016H13.121V22.7016H18.879V20.7016ZM20.2529 20.2407C19.9657 20.5119 19.5235 20.7016 18.879 20.7016V22.7016C19.9281 22.7016 20.8972 22.3832 21.6261 21.6948L20.2529 20.2407Z" fill="white" mask="url(#path-1-inside-1_29722_18206)"/>
</svg>
