<svg width="32" height="32" viewBox="0 0 32 32" fill="none" xmlns="http://www.w3.org/2000/svg">
<circle cx="16" cy="16" r="15.5" stroke="white"/>
<path d="M16.0001 12.3589C14.0243 12.3589 12.3872 13.9678 12.3872 15.9718C12.3872 17.9758 13.9961 19.5847 16.0001 19.5847C18.0041 19.5847 19.613 17.9476 19.613 15.9718C19.613 13.996 17.9759 12.3589 16.0001 12.3589ZM16.0001 18.2863C14.7299 18.2863 13.6856 17.242 13.6856 15.9718C13.6856 14.7016 14.7299 13.6573 16.0001 13.6573C17.2703 13.6573 18.3146 14.7016 18.3146 15.9718C18.3146 17.242 17.2703 18.2863 16.0001 18.2863Z" fill="white"/>
<path d="M19.7539 13.0928C20.2059 13.0928 20.5724 12.7263 20.5724 12.2742C20.5724 11.8221 20.2059 11.4557 19.7539 11.4557C19.3018 11.4557 18.9353 11.8221 18.9353 12.2742C18.9353 12.7263 19.3018 13.0928 19.7539 13.0928Z" fill="white"/>
<path d="M21.871 10.1573C21.1371 9.39516 20.0927 9 18.9073 9H13.0927C10.6371 9 9 10.6371 9 13.0927V18.879C9 20.0927 9.39516 21.1371 10.1855 21.8992C10.9476 22.6331 11.9637 23 13.121 23H18.879C20.0927 23 21.1089 22.6048 21.8427 21.8992C22.6048 21.1653 23 20.121 23 18.9073V13.0927C23 11.9073 22.6048 10.8911 21.871 10.1573ZM21.7581 18.9073C21.7581 19.7823 21.4476 20.4879 20.9395 20.9677C20.4315 21.4476 19.7258 21.7016 18.879 21.7016H13.121C12.2742 21.7016 11.5685 21.4476 11.0605 20.9677C10.5524 20.4597 10.2984 19.754 10.2984 18.879V13.0927C10.2984 12.246 10.5524 11.5403 11.0605 11.0323C11.5403 10.5524 12.2742 10.2984 13.121 10.2984H18.9355C19.7823 10.2984 20.4879 10.5524 20.996 11.0605C21.4758 11.5685 21.7581 12.2742 21.7581 13.0927V18.9073Z" fill="white"/>
</svg>
