<svg width="32" height="32" viewBox="0 0 32 32" fill="none" xmlns="http://www.w3.org/2000/svg">
<circle cx="16" cy="16" r="15.5" stroke="white"/>
<path d="M24.624 11.1861C24.417 10.3256 23.8071 9.64797 23.0326 9.41797C21.6288 9 16 9 16 9C16 9 10.3712 9 8.96738 9.41797C8.19303 9.64797 7.58303 10.3256 7.37607 11.1861C7 12.7458 7 16.0001 7 16.0001C7 16.0001 7 19.2543 7.37607 20.8139C7.58303 21.6744 8.19303 22.3522 8.96738 22.5822C10.3712 23 16 23 16 23C16 23 21.6288 23 23.0326 22.5822C23.8071 22.3522 24.417 21.6744 24.624 20.8139C25 19.2543 25 16.0001 25 16.0001C25 16.0001 25 12.7458 24.624 11.1861ZM14.1999 19.0002V13L18.8764 16.0001L14.1999 19.0002Z" fill="white"/>
</svg>
