<svg width="32" height="32" viewBox="0 0 32 32" fill="none" xmlns="http://www.w3.org/2000/svg">
<mask id="path-1-inside-1_29722_18226" fill="white">
<path fill-rule="evenodd" clip-rule="evenodd" d="M16 32C24.8366 32 32 24.8366 32 16C32 7.16344 24.8366 0 16 0C7.16344 0 0 7.16344 0 16C0 24.8366 7.16344 32 16 32ZM23.0326 9.41797C23.8071 9.64797 24.417 10.3256 24.624 11.1861C25 12.7458 25 16.0001 25 16.0001C25 16.0001 25 19.2543 24.624 20.8139C24.417 21.6744 23.8071 22.3522 23.0326 22.5822C21.6288 23 16 23 16 23C16 23 10.3712 23 8.96738 22.5822C8.19303 22.3522 7.58303 21.6744 7.37607 20.8139C7 19.2543 7 16.0001 7 16.0001C7 16.0001 7 12.7458 7.37607 11.1861C7.58303 10.3256 8.19303 9.64797 8.96738 9.41797C10.3712 9 16 9 16 9C16 9 21.6288 9 23.0326 9.41797ZM14.1999 13V19.0002L18.8764 16.0001L14.1999 13Z"/>
</mask>
<path fill-rule="evenodd" clip-rule="evenodd" d="M16 32C24.8366 32 32 24.8366 32 16C32 7.16344 24.8366 0 16 0C7.16344 0 0 7.16344 0 16C0 24.8366 7.16344 32 16 32ZM23.0326 9.41797C23.8071 9.64797 24.417 10.3256 24.624 11.1861C25 12.7458 25 16.0001 25 16.0001C25 16.0001 25 19.2543 24.624 20.8139C24.417 21.6744 23.8071 22.3522 23.0326 22.5822C21.6288 23 16 23 16 23C16 23 10.3712 23 8.96738 22.5822C8.19303 22.3522 7.58303 21.6744 7.37607 20.8139C7 19.2543 7 16.0001 7 16.0001C7 16.0001 7 12.7458 7.37607 11.1861C7.58303 10.3256 8.19303 9.64797 8.96738 9.41797C10.3712 9 16 9 16 9C16 9 21.6288 9 23.0326 9.41797ZM14.1999 13V19.0002L18.8764 16.0001L14.1999 13Z" fill="white"/>
<path d="M24.624 11.1861L23.6517 11.42L23.6518 11.4205L24.624 11.1861ZM23.0326 9.41797L22.7473 10.3764L22.7479 10.3766L23.0326 9.41797ZM25 16.0001L24 16.0001L24 16.0001L25 16.0001ZM24.624 20.8139L23.6518 20.5795L23.6517 20.58L24.624 20.8139ZM23.0326 22.5822L22.748 21.6235L22.7474 21.6237L23.0326 22.5822ZM16 23L16 24L16 24L16 23ZM8.96738 22.5822L9.25263 21.6237L9.25207 21.6236L8.96738 22.5822ZM7.37607 20.8139L8.34834 20.58L8.3482 20.5794L7.37607 20.8139ZM7.37607 11.1861L8.34821 11.4205L8.34834 11.42L7.37607 11.1861ZM8.96738 9.41797L9.25211 10.3766L9.25273 10.3764L8.96738 9.41797ZM14.1999 19.0002H13.1999V20.8298L14.7399 19.8418L14.1999 19.0002ZM14.1999 13L14.7399 12.1584L13.1999 11.1704V13H14.1999ZM18.8764 16.0001L19.4163 16.8418L20.7283 16.0001L19.4163 15.1584L18.8764 16.0001ZM31 16C31 24.2843 24.2843 31 16 31V33C25.3888 33 33 25.3888 33 16H31ZM16 1C24.2843 1 31 7.71573 31 16H33C33 6.61116 25.3888 -1 16 -1V1ZM1 16C1 7.71573 7.71573 1 16 1V-1C6.61116 -1 -1 6.61116 -1 16H1ZM16 31C7.71573 31 1 24.2843 1 16H-1C-1 25.3888 6.61116 33 16 33V31ZM25.5962 10.9523C25.3155 9.78494 24.4717 8.80218 23.3173 8.45935L22.7479 10.3766C23.1425 10.4938 23.5185 10.8662 23.6517 11.42L25.5962 10.9523ZM25 16.0001C26 16.0001 26 16 26 16C26 15.9999 26 15.9998 26 15.9997C26 15.9996 26 15.9993 26 15.9991C26 15.9985 26 15.9978 26 15.9968C26 15.995 26 15.9923 26 15.9889C26 15.982 25.9999 15.9722 25.9999 15.9594C25.9998 15.9339 25.9996 15.8967 25.9992 15.8493C25.9985 15.7543 25.997 15.6178 25.994 15.4494C25.988 15.1131 25.976 14.6477 25.9519 14.1315C25.9051 13.1264 25.8091 11.8352 25.5961 10.9518L23.6518 11.4205C23.8149 12.0968 23.9069 13.2125 23.9541 14.2246C23.977 14.7169 23.9885 15.1625 23.9943 15.4851C23.9972 15.6462 23.9986 15.7761 23.9993 15.8652C23.9997 15.9098 23.9998 15.9441 23.9999 15.967C24 15.9784 24 15.987 24 15.9926C24 15.9954 24 15.9974 24 15.9987C24 15.9993 24 15.9997 24 16C24 16.0001 24 16.0002 24 16.0002C24 16.0002 24 16.0002 24 16.0002C24 16.0002 24 16.0001 25 16.0001ZM25.5961 21.0483C25.8091 20.1649 25.9051 18.8737 25.9519 17.8687C25.976 17.3525 25.988 16.8871 25.994 16.5508C25.997 16.3824 25.9985 16.2459 25.9992 16.151C25.9996 16.1035 25.9998 16.0664 25.9999 16.0408C25.9999 16.0281 26 16.0182 26 16.0113C26 16.0079 26 16.0053 26 16.0034C26 16.0025 26 16.0017 26 16.0012C26 16.0009 26 16.0007 26 16.0005C26 16.0004 26 16.0003 26 16.0003C26 16.0002 26 16.0001 25 16.0001C24 16.0001 24 16.0001 24 16C24 16 24 16 24 16C24 16.0001 24 16.0001 24 16.0003C24 16.0005 24 16.0009 24 16.0016C24 16.0028 24 16.0049 24 16.0077C24 16.0132 24 16.0218 23.9999 16.0333C23.9998 16.0561 23.9997 16.0905 23.9993 16.135C23.9986 16.2241 23.9972 16.354 23.9943 16.5151C23.9885 16.8377 23.977 17.2833 23.9541 17.7756C23.9069 18.7876 23.8149 19.9033 23.6518 20.5795L25.5961 21.0483ZM23.3173 23.5408C24.4719 23.198 25.3155 22.2149 25.5962 21.0477L23.6517 20.58C23.5185 21.1339 23.1424 21.5064 22.748 21.6236L23.3173 23.5408ZM16 23C16 24 16.0001 24 16.0002 24C16.0002 24 16.0003 24 16.0004 24C16.0006 24 16.0009 24 16.0013 24C16.0021 24 16.0032 24 16.0047 24C16.0076 24 16.0119 24 16.0174 24C16.0285 24 16.0448 23.9999 16.066 23.9999C16.1085 23.9998 16.1705 23.9996 16.2498 23.9992C16.4084 23.9983 16.636 23.9967 16.9133 23.9934C17.4675 23.9868 18.2224 23.9736 19.0229 23.9472C19.8215 23.9209 20.6745 23.8811 21.4223 23.8205C22.1394 23.7624 22.8533 23.6789 23.3179 23.5406L22.7474 21.6237C22.51 21.6944 21.9939 21.7676 21.2608 21.827C20.5583 21.8839 19.7409 21.9224 18.9569 21.9483C18.1747 21.9741 17.4346 21.9871 16.8896 21.9935C16.6173 21.9968 16.3941 21.9984 16.2394 21.9992C16.1621 21.9996 16.1018 21.9998 16.0611 21.9999C16.0408 22 16.0253 22 16.015 22C16.0099 22 16.006 22 16.0035 22C16.0023 22 16.0013 22 16.0008 22C16.0005 22 16.0003 22 16.0001 22C16.0001 22 16 22 16 22C16 22 16 22 16 23ZM8.68213 23.5406C9.14671 23.6789 9.86063 23.7624 10.5777 23.8205C11.3255 23.8811 12.1785 23.9209 12.9772 23.9472C13.7776 23.9736 14.5325 23.9868 15.0867 23.9934C15.364 23.9967 15.5916 23.9983 15.7502 23.9992C15.8295 23.9996 15.8916 23.9998 15.934 23.9999C15.9552 23.9999 15.9715 24 15.9826 24C15.9882 24 15.9924 24 15.9953 24C15.9968 24 15.9979 24 15.9987 24C15.9991 24 15.9994 24 15.9996 24C15.9997 24 15.9998 24 15.9999 24C16 24 16 24 16 23C16 22 16 22 16 22C16 22 16 22 15.9999 22C15.9998 22 15.9996 22 15.9993 22C15.9987 22 15.9978 22 15.9965 22C15.994 22 15.9902 22 15.985 22C15.9747 22 15.9593 22 15.9389 21.9999C15.8982 21.9998 15.838 21.9996 15.7606 21.9992C15.6059 21.9984 15.3828 21.9968 15.1105 21.9935C14.5654 21.9871 13.8253 21.9741 13.0431 21.9483C12.2592 21.9224 11.4417 21.8839 10.7393 21.827C10.0061 21.7676 9.48999 21.6944 9.25263 21.6237L8.68213 23.5406ZM6.40379 21.0477C6.68453 22.215 7.52832 23.198 8.6827 23.5408L9.25207 21.6236C8.85774 21.5065 8.48154 21.1339 8.34834 20.58L6.40379 21.0477ZM7 16.0001C6 16.0001 6 16.0002 6 16.0003C6 16.0003 6 16.0004 6 16.0005C6 16.0007 6 16.0009 6 16.0012C6 16.0017 6 16.0025 6 16.0034C6 16.0053 6.00001 16.0079 6.00001 16.0113C6.00003 16.0182 6.00005 16.0281 6.0001 16.0408C6.0002 16.0664 6.00039 16.1035 6.00077 16.151C6.00152 16.2459 6.00303 16.3824 6.00604 16.5508C6.01203 16.8871 6.02403 17.3525 6.04809 17.8687C6.09494 18.8737 6.19092 20.1649 6.40393 21.0483L8.3482 20.5794C8.18515 19.9033 8.09309 18.7876 8.04592 17.7756C8.02298 17.2833 8.01147 16.8377 8.00572 16.5151C8.00284 16.354 8.00141 16.2241 8.0007 16.135C8.00035 16.0905 8.00017 16.0561 8.00008 16.0333C8.00004 16.0218 8.00002 16.0132 8.00001 16.0076C8 16.0049 8 16.0028 8 16.0016C8 16.0009 8 16.0005 8 16.0003C8 16.0001 8 16.0001 8 16C8 16 8 16 8 16C8 16.0001 8 16.0001 7 16.0001ZM6.40393 10.9517C6.19092 11.8352 6.09494 13.1264 6.04809 14.1314C6.02403 14.6477 6.01203 15.1131 6.00604 15.4494C6.00303 15.6178 6.00152 15.7543 6.00077 15.8493C6.00039 15.8967 6.0002 15.9339 6.0001 15.9594C6.00005 15.9722 6.00003 15.982 6.00001 15.9889C6.00001 15.9923 6 15.995 6 15.9968C6 15.9978 6 15.9985 6 15.9991C6 15.9993 6 15.9996 6 15.9997C6 15.9998 6 15.9999 6 16C6 16 6 16.0001 7 16.0001C8 16.0001 8 16.0002 8 16.0002C8 16.0002 8 16.0002 8 16.0002C8 16.0002 8 16.0001 8 16C8 15.9997 8 15.9993 8 15.9987C8 15.9974 8 15.9954 8.00001 15.9926C8.00002 15.987 8.00004 15.9784 8.00008 15.967C8.00017 15.9441 8.00035 15.9098 8.0007 15.8652C8.00141 15.7761 8.00284 15.6462 8.00572 15.4851C8.01147 15.1625 8.02298 14.7169 8.04592 14.2246C8.09309 13.2126 8.18515 12.0968 8.34821 11.4205L6.40393 10.9517ZM8.68266 8.45936C7.52843 8.80219 6.68456 9.78489 6.40379 10.9523L8.34834 11.42C8.48151 10.8663 8.85763 10.4937 9.25211 10.3766L8.68266 8.45936ZM16 9C16 8 16 8 15.9999 8C15.9998 8 15.9997 8 15.9996 8C15.9994 8 15.9991 8 15.9987 8C15.9979 8 15.9968 8 15.9953 8C15.9924 8 15.9882 8.00001 15.9826 8.00001C15.9715 8.00003 15.9552 8.00005 15.934 8.00011C15.8916 8.00021 15.8295 8.00042 15.7502 8.00083C15.5916 8.00166 15.364 8.00331 15.0867 8.0066C14.5325 8.01319 13.7776 8.02637 12.9772 8.05279C12.1785 8.07916 11.3254 8.11899 10.5777 8.1796C9.8606 8.23773 9.14664 8.32122 8.68203 8.45955L9.25273 10.3764C9.49005 10.3057 10.0061 10.2325 10.7393 10.1731C11.4418 10.1161 12.2592 10.0776 13.0431 10.0517C13.8253 10.0259 14.5654 10.0129 15.1105 10.0065C15.3828 10.0032 15.6059 10.0016 15.7606 10.0008C15.838 10.0004 15.8982 10.0002 15.9389 10.0001C15.9593 10 15.9747 10 15.985 10C15.9902 10 15.994 10 15.9965 10C15.9978 10 15.9987 10 15.9993 10C15.9996 10 15.9998 10 15.9999 10C16 10 16 10 16 10C16 10 16 10 16 9ZM23.318 8.45955C22.8534 8.32122 22.1394 8.23773 21.4223 8.1796C20.6746 8.11899 19.8216 8.07916 19.0229 8.05279C18.2224 8.02637 17.4675 8.01319 16.9133 8.0066C16.636 8.00331 16.4084 8.00166 16.2498 8.00083C16.1705 8.00042 16.1085 8.00021 16.066 8.00011C16.0448 8.00005 16.0285 8.00003 16.0174 8.00001C16.0119 8.00001 16.0076 8 16.0047 8C16.0032 8 16.0021 8 16.0013 8C16.0009 8 16.0006 8 16.0004 8C16.0003 8 16.0002 8 16.0002 8C16.0001 8 16 8 16 9C16 10 16 10 16 10C16 10 16.0001 10 16.0001 10C16.0003 10 16.0005 10 16.0008 10C16.0013 10 16.0023 10 16.0035 10C16.006 10 16.0099 10 16.015 10C16.0253 10 16.0408 10 16.0611 10.0001C16.1018 10.0002 16.1621 10.0004 16.2394 10.0008C16.3941 10.0016 16.6173 10.0032 16.8896 10.0065C17.4346 10.0129 18.1747 10.0259 18.9569 10.0517C19.7408 10.0776 20.5583 10.1161 21.2607 10.1731C21.9939 10.2325 22.5099 10.3057 22.7473 10.3764L23.318 8.45955ZM15.1999 19.0002V13H13.1999V19.0002H15.1999ZM18.3364 15.1584L13.6599 18.1585L14.7399 19.8418L19.4163 16.8418L18.3364 15.1584ZM13.6599 13.8417L18.3364 16.8418L19.4163 15.1584L14.7399 12.1584L13.6599 13.8417Z" fill="white" mask="url(#path-1-inside-1_29722_18226)"/>
</svg>
